<svg width="127" height="97" viewBox="0 0 127 97" fill="none" xmlns="http://www.w3.org/2000/svg">
<g clip-path="url(#clip0_7507_2343)">
<path opacity="0.5" d="M96.8645 10.7973C97.2481 10.8004 97.6237 10.9077 97.951 11.1078C97.7263 10.3625 97.6616 9.57806 97.7612 8.806C97.8608 8.03394 98.1224 7.29164 98.529 6.62777C98.9355 5.96389 99.4778 5.39343 100.12 4.95378C100.763 4.51412 101.491 4.2152 102.257 4.0766C103.023 3.93801 103.809 3.96287 104.565 4.14956C105.321 4.33625 106.029 4.68055 106.642 5.15989C107.255 5.63923 107.761 6.2428 108.124 6.93102C108.488 7.61924 108.702 8.37657 108.753 9.15338C109.15 8.7161 109.651 8.38551 110.209 8.19195C110.767 7.99839 111.365 7.94805 111.947 8.04554C112.53 8.14303 113.078 8.38524 113.543 8.74995C114.008 9.11466 114.373 9.59019 114.606 10.1329C114.839 10.6757 114.932 11.2682 114.877 11.8563C114.821 12.4444 114.619 13.0091 114.289 13.4986C113.958 13.9882 113.51 14.387 112.986 14.6583C112.461 14.9297 111.877 15.065 111.286 15.0518H96.8645C96.3031 15.0518 95.7647 14.8288 95.3678 14.4319C94.9708 14.0349 94.7478 13.4965 94.7478 12.9352C94.7478 12.3738 94.9708 11.8354 95.3678 11.4385C95.7647 11.0415 96.3031 10.8185 96.8645 10.8185V10.7973Z" fill="#DCE4FF"/>
<path opacity="0.5" d="M47.9627 17.0909C47.7129 17.0978 47.4694 17.1708 47.2571 17.3026C47.3589 16.959 47.4112 16.6026 47.4123 16.2442C47.4451 15.2637 47.087 14.3103 46.4168 13.5938C45.7466 12.8773 44.8192 12.4564 43.8387 12.4237C43.3532 12.4074 42.8692 12.487 42.4145 12.6578C41.9597 12.8287 41.5431 13.0874 41.1883 13.4192C40.4718 14.0894 40.0509 15.0168 40.0181 15.9973C39.7515 15.7145 39.4184 15.5026 39.0492 15.3811C38.68 15.2595 38.2863 15.232 37.9038 15.3011C37.5212 15.3701 37.162 15.5336 36.8586 15.7766C36.5553 16.0197 36.3174 16.3346 36.1665 16.6928C36.0156 17.0511 35.9565 17.4413 35.9946 17.8282C36.0327 18.215 36.1668 18.5862 36.3847 18.9082C36.6025 19.2301 36.8973 19.4925 37.2422 19.6717C37.5872 19.8509 37.9714 19.9412 38.3601 19.9343H47.9627C48.3369 19.9343 48.6958 19.7856 48.9605 19.521C49.2251 19.2564 49.3738 18.8974 49.3738 18.5232C49.3738 18.1489 49.2251 17.79 48.9605 17.5254C48.6958 17.2607 48.3369 17.1121 47.9627 17.1121V17.0909Z" fill="#DCE4FF"/>
<path d="M71.0699 97.0607C92.4847 97.0607 109.845 79.7005 109.845 58.2857C109.845 36.8708 92.4847 19.5106 71.0699 19.5106C49.655 19.5106 32.2948 36.8708 32.2948 58.2857C32.2948 79.7005 49.655 97.0607 71.0699 97.0607Z" fill="#96AAFF"/>
<mask id="mask0_7507_2343" style="mask-type:alpha" maskUnits="userSpaceOnUse" x="32" y="19" width="78" height="79">
<path d="M71.0699 97.0607C92.4847 97.0607 109.845 79.7005 109.845 58.2857C109.845 36.8708 92.4847 19.5106 71.0699 19.5106C49.655 19.5106 32.2948 36.8708 32.2948 58.2857C32.2948 79.7005 49.655 97.0607 71.0699 97.0607Z" fill="#B6F4E9"/>
</mask>
<g mask="url(#mask0_7507_2343)">
<path d="M36.075 21.0961L53.1457 38.9798H81.8816" stroke="#F4F8FF" stroke-width="2.82222" stroke-miterlimit="10"/>
<path d="M88.0594 33.3301V21.0961" stroke="#F4F8FF" stroke-width="2.82222" stroke-miterlimit="10"/>
<path d="M53.1456 22.0716V50.0352H88.0595V44.5888" stroke="#F4F8FF" stroke-width="2.82222" stroke-miterlimit="10"/>
<path d="M27.5394 44.5886H42.456H53.1456" stroke="#F4F8FF" stroke-width="2.82222" stroke-miterlimit="10"/>
<path d="M43.2284 74.0967V44.5886" stroke="#F4F8FF" stroke-width="2.82222" stroke-miterlimit="10"/>
<path d="M29.4498 63.8139H101.757" stroke="#F4F8FF" stroke-width="2.82222" stroke-miterlimit="10"/>
<path d="M88.0594 50.0353L108.179 70.1138" stroke="#F4F8FF" stroke-width="2.82222" stroke-miterlimit="10"/>
<path d="M73.1428 50.0353V93.6065" stroke="#F4F8FF" stroke-width="2.82222" stroke-miterlimit="10"/>
<path d="M88.0594 63.8139V93.1594" stroke="#F4F8FF" stroke-width="2.82222" stroke-miterlimit="10"/>
<path d="M87.572 44.7106C90.7371 44.7106 93.3029 42.1448 93.3029 38.9797C93.3029 35.8146 90.7371 33.2488 87.572 33.2488C84.4069 33.2488 81.8411 35.8146 81.8411 38.9797C81.8411 42.1448 84.4069 44.7106 87.572 44.7106Z" stroke="#F4F8FF" stroke-width="2.82222" stroke-miterlimit="10"/>
<path d="M93.3026 38.9799H108.179" stroke="#F4F8FF" stroke-width="2.82222" stroke-miterlimit="10"/>
</g>
<path d="M57.0246 99.6603C57.0246 90.0682 47.4325 82.305 35.6455 82.305C23.8179 82.305 14.2664 90.0682 14.2664 99.6603" fill="#5D7FFE"/>
<path d="M22.2733 99.6604C22.2733 93.5231 17.274 88.5238 11.1367 88.5238C4.9993 88.5238 0 93.5231 0 99.6604" fill="#5D7FFE"/>
<path d="M104.439 66.4959L88.0593 78.3235H51.9668" stroke="#F4F8FF" stroke-width="2.82222" stroke-miterlimit="10"/>
<path d="M25.6897 48.9635C25.2019 48.7603 24.6736 49.0041 24.4297 49.4512L23.4136 51.5241L26.2994 54.7757L26.34 49.939C26.34 49.4919 26.0961 49.0854 25.6897 48.9635Z" fill="#FFD3BB"/>
<path d="M20.8529 55.7511C19.5117 54.5318 19.3897 52.4995 20.6091 51.1583C21.8284 49.817 23.8606 49.695 25.2019 50.9144C26.5432 52.1337 26.6651 54.166 25.4458 55.5072C24.2671 56.8079 22.1942 56.9298 20.8529 55.7511Z" fill="#FFD3BB"/>
<path d="M36.2978 61.0351C35.2817 59.5313 33.2901 59.1248 31.7863 60.1003C30.2824 61.0758 29.876 63.108 30.8514 64.6119C31.8676 66.1157 33.8592 66.5222 35.363 65.5467C36.8669 64.5306 37.2733 62.4984 36.2978 61.0351Z" fill="#FFD3BB"/>
<path d="M22.2755 56.5234L25.08 52.4996L35.6476 60.3034L31.4612 65.262L22.2755 56.5234Z" fill="#FFD3BB"/>
<path d="M37.3142 50.6298C36.3794 52.1743 36.8671 54.1659 38.4116 55.1007C39.9561 56.0356 41.9477 55.5479 42.8825 54.0034C43.8174 52.4589 43.3296 50.4673 41.7851 49.5324C40.2813 48.5976 38.249 49.0853 37.3142 50.6298Z" fill="#FFDB00"/>
<path d="M36.176 64.8147L30.9329 61.0754L32.6399 58.271L38.2083 61.6851L36.176 64.8147Z" fill="#FFD3BB"/>
<path d="M38.5333 62.2947L31.8676 58.5147L37.5172 50.3045L43.0855 53.7186L38.5333 62.2947Z" fill="#FFDB00"/>
<path d="M37.3952 50.2233C37.3952 50.1826 37.4359 50.1826 37.4765 50.1826C38.5333 48.882 40.4436 48.5568 41.9068 49.451C43.37 50.3452 43.939 52.1742 43.2481 53.7187C43.2481 53.7594 43.2481 53.7594 43.2481 53.8L38.6552 62.3761C38.6552 62.3761 38.6552 62.4167 38.6146 62.4167L38.5739 62.4573C38.5333 62.4573 38.4926 62.4573 38.452 62.4573L31.7862 58.6367C31.7456 58.5961 31.705 58.5961 31.705 58.5554C31.705 58.5148 31.705 58.4742 31.7456 58.4335L37.3952 50.2233ZM32.0708 58.4335L38.452 62.0915L42.9229 53.6781C42.9229 53.6374 42.9229 53.6374 42.9229 53.5968C43.5732 52.1742 43.0855 50.4671 41.7036 49.6136C40.3623 48.8007 38.6146 49.0852 37.6391 50.3452C37.6391 50.3859 37.5984 50.3859 37.5984 50.3859L32.0708 58.4335Z" fill="white"/>
<path d="M26.3081 53.3805L26.1394 53.6096L32.1277 58.0211L32.2965 57.792L26.3081 53.3805Z" fill="white"/>
<path d="M55.8884 58.4742C52.2711 59.8155 48.2879 57.9864 46.9466 54.3691L42.4757 42.2976C41.1344 38.6802 42.9634 34.697 46.5808 33.3557C50.1982 32.0145 54.1814 33.8435 55.5226 37.4609L59.9936 49.5324C61.3348 53.1497 59.4652 57.1329 55.8884 58.4742Z" fill="black"/>
<path d="M59.8311 79.9752C58.124 79.9752 56.7421 78.5933 56.7421 76.8862V74.4475C56.7421 72.7404 58.124 71.3585 59.8311 71.3585C61.5381 71.3585 62.9201 72.7404 62.9201 74.4475V76.8862C62.9201 78.5933 61.5381 79.9752 59.8311 79.9752Z" fill="#FFDB00"/>
<path d="M56.5793 73.7566C56.5793 72.4153 57.6768 71.3179 59.018 71.3179H60.6032C61.9445 71.3179 63.0419 72.4153 63.0419 73.7566C63.0419 75.0979 61.9445 76.1953 60.6032 76.1953H59.018C57.6768 76.2359 56.5793 75.1385 56.5793 73.7566ZM59.018 71.6024C57.8393 71.6024 56.8639 72.5779 56.8639 73.7566C56.8639 74.9353 57.8393 75.9108 59.018 75.9108H60.6032C61.7819 75.9108 62.7573 74.9353 62.7573 73.7566C62.7573 72.5779 61.7819 71.6024 60.6032 71.6024H59.018Z" fill="white"/>
<path d="M43.3293 37.2574C45.4022 32.7458 51.7834 34.0465 52.2305 36.3632L46.2557 37.6232C46.8248 38.68 46.2151 42.7851 44.9145 42.2567C43.5325 41.769 42.5164 39.0458 43.3293 37.2574Z" fill="black"/>
<path d="M47.8295 51.1832L52.3457 50.3478L50.8966 42.5145L46.3805 43.3499L47.8295 51.1832Z" fill="#FFD3BB"/>
<path d="M47.353 48.6785L51.133 43.8011L50.8891 42.5005L46.3369 43.354L47.353 48.6785Z" fill="black"/>
<path d="M52.2255 46.7525L46.7501 47.7654L47.6225 52.4814L53.0979 51.4685L52.2255 46.7525Z" fill="#FFDB00"/>
<path d="M51.781 46.886L51.5012 46.9377L51.826 48.6963L52.1058 48.6447L51.781 46.886Z" fill="white"/>
<path d="M50.3145 47.1351L50.0347 47.1868L50.3594 48.9455L50.6392 48.8938L50.3145 47.1351Z" fill="white"/>
<path d="M48.898 47.4194L48.6182 47.4711L48.9431 49.2298L49.2229 49.1781L48.898 47.4194Z" fill="white"/>
<path d="M47.4675 47.6586L47.1877 47.7103L47.5125 49.4689L47.7923 49.4173L47.4675 47.6586Z" fill="white"/>
<path d="M43.6952 39.1271C43.8577 41.891 44.7113 45.7522 48.4506 45.5084C51.7835 45.3051 52.5151 41.3626 52.3118 38.5988C52.1493 35.8349 50.117 34.8594 47.7596 35.022C45.4022 35.144 43.5326 36.3226 43.6952 39.1271Z" fill="#FFD3BB"/>
<path d="M45.9304 40.5904C45.7678 40.5904 45.6052 40.8343 45.6458 41.0781C45.6458 41.3627 45.8084 41.5659 46.0116 41.5252C46.1742 41.5252 46.3368 41.2814 46.2962 41.0375C46.2555 40.753 46.0929 40.5498 45.9304 40.5904Z" fill="black"/>
<path d="M45.1176 40.0618L46.5808 39.9805C46.215 39.5335 45.4834 39.5741 45.1176 40.0618Z" fill="black"/>
<path d="M48.857 40.3867C48.6944 40.3867 48.5318 40.6306 48.5725 40.8745C48.5725 41.159 48.7351 41.3622 48.9383 41.3216C49.1415 41.2809 49.2634 41.0777 49.2228 40.8338C49.1821 40.5899 49.0602 40.3867 48.857 40.3867Z" fill="black"/>
<path d="M48.0847 39.8586L49.5479 39.7773C49.1821 39.3708 48.4505 39.4115 48.0847 39.8586Z" fill="black"/>
<path d="M53.2466 40.9559C53.2873 41.6469 52.7589 42.2566 52.0273 42.3379C51.2957 42.4192 50.7267 41.8501 50.6454 41.1185C50.6047 40.4276 51.1331 39.8179 51.8647 39.7366C52.5557 39.696 53.206 40.265 53.2466 40.9559Z" fill="#FFD3BB"/>
<path d="M51.9866 41.8095L51.8646 41.525C52.2304 41.3624 52.2711 41.2405 52.2711 41.2405C52.2711 41.1592 52.1898 41.0779 52.1085 40.9966C51.9866 40.8747 51.8646 40.7121 51.9053 40.5495C51.9459 40.3463 52.1491 40.2244 52.3117 40.1837L52.4337 40.4682C52.1898 40.5495 52.1898 40.6308 52.1898 40.6308C52.1898 40.6715 52.2711 40.7528 52.3524 40.834C52.4743 40.956 52.6369 41.1186 52.5962 41.3624C52.5149 41.4844 52.3524 41.6469 51.9866 41.8095Z" fill="black"/>
<path d="M52.1086 35.6317C48.5725 32.1769 43.0854 35.6317 43.4512 37.9891L49.5073 37.0542C49.3854 38.2329 51.4176 41.8503 52.4337 40.9155C53.4905 39.8994 53.4905 36.973 52.1086 35.6317Z" fill="black"/>
<path d="M43.7359 36.729L49.9139 36.4851C49.101 39.1677 46.3778 40.3057 46.2965 38.2329C44.8739 40.4277 42.232 40.5496 43.7359 36.729Z" fill="black"/>
<path d="M47.3531 42.5005C47.0279 42.4598 46.5808 42.3379 46.5808 42.0534C46.5402 41.8095 46.8247 41.6063 46.9873 41.525L46.906 40.8747L47.1905 40.834L47.2718 41.6063C47.2718 41.6876 47.2311 41.7282 47.1905 41.7689C47.0279 41.8095 46.8653 41.9721 46.8653 42.0534C46.8653 42.0534 46.906 42.1753 47.3937 42.2566L47.3531 42.5005Z" fill="black"/>
<path d="M47.8409 42.9477C47.4751 43.029 47.1093 43.0696 46.7435 43.0696V42.7851C47.4345 42.7851 48.1254 42.6632 48.7351 42.3787L48.8571 42.6632C48.5319 42.7851 48.2067 42.8664 47.8409 42.9477Z" fill="#FFD3BB"/>
<path d="M44.4671 123.953L48.369 73.1472L38.4923 72.5781V123.912L44.4671 123.953Z" fill="#FFD3BB"/>
<path d="M65.1148 123.953L58.449 72.0497L48.3691 71.6839L59.3839 123.953H65.1148Z" fill="#FFD3BB"/>
<path d="M36.2164 105.785L38.4519 73.3096V72.9438C38.4519 72.6186 38.4925 72.3341 38.5738 72.0496C39.3054 66.969 43.6951 63.0671 48.9382 63.0671C53.7343 63.0671 57.7988 66.2781 59.0181 70.7083C59.262 71.1554 59.4246 71.6838 59.4246 72.2122V72.2935L64.7897 107.858L36.2164 105.785Z" fill="#1520EA"/>
<mask id="mask1_7507_2343" style="mask-type:alpha" maskUnits="userSpaceOnUse" x="36" y="62" width="29" height="46">
<path d="M36.342 105.175L38.5775 72.7V72.3342C38.5775 72.009 38.6181 71.7245 38.6994 71.44C39.431 66.3594 43.8207 62.4575 49.0638 62.4575C53.8599 62.4575 57.9244 65.6684 59.1437 70.0987C59.3876 70.5458 59.5502 71.0742 59.5502 71.6026V71.6839L64.9153 107.248L36.342 105.175Z" fill="#1520EA"/>
</mask>
<g mask="url(#mask1_7507_2343)">
<path d="M44.6298 108.183C43.004 108.183 41.2969 107.41 40.2808 106.232C39.4273 105.256 39.1834 104.118 39.4679 102.939C40.037 100.582 42.9227 99.4033 45.3614 98.6311C49.3852 97.3711 53.6529 96.8833 57.7987 96.4362C58.8148 96.3143 59.9122 96.1924 60.9283 96.0705H60.969C66.578 95.3795 69.8702 94.2008 70.7237 92.575C71.0489 91.9653 71.0489 91.2744 70.6424 90.5428C69.7076 88.7137 66.4967 88.0228 64.0173 87.9821C60.5219 87.9009 57.1077 88.9576 54.222 90.0144C52.7994 90.5428 51.3768 91.1118 50.0356 91.6402C46.2149 93.1847 42.2318 94.8105 38.0454 95.2169C36.2976 95.3795 34.8344 95.0137 34.0215 94.1601C33.3712 93.5098 33.0867 92.6156 33.2086 91.4776C33.5744 87.8602 38.3299 87.8196 40.3621 87.7789C40.606 87.7789 40.8905 87.7789 41.2156 87.7789C43.6543 87.8196 48.7349 87.8602 50.1168 85.9905C50.4826 85.5028 50.5639 84.8931 50.3607 84.1615C49.4665 81.1945 43.2072 81.0319 38.2079 80.91C34.5906 80.8287 31.7454 80.7474 31.4609 79.6906C31.2577 78.9184 32.3145 77.8616 34.9157 76.2358C36.4196 75.301 46.0117 73.4313 56.2135 78.7558C56.7826 79.0403 57.3516 79.3655 57.9206 79.6906C59.4651 80.5442 61.0503 81.4383 62.7167 81.9667C63.9767 82.3732 65.6838 82.2512 66.4967 81.0725C67.0251 80.3003 67.1876 79.528 66.9438 78.7152C66.3747 76.7236 63.5702 74.6507 58.5709 72.5371C55.36 71.1552 51.7426 70.261 47.8407 69.7733C40.6873 68.9604 33.737 70.0985 28.2093 73.0655L28.0874 72.8217C33.6557 69.814 40.6873 68.6353 47.8814 69.4888C51.7833 69.9359 55.4413 70.8707 58.6929 72.2526C63.7735 74.4068 66.6186 76.561 67.2283 78.6339C67.4721 79.528 67.3096 80.4222 66.7405 81.2351C65.8463 82.4951 63.9767 82.6577 62.6354 82.2106C60.9283 81.6822 59.3432 80.788 57.7581 79.9345C57.189 79.6093 56.62 79.3248 56.051 78.9997C45.9304 73.7159 36.5415 75.5042 35.0377 76.439C32.6803 77.9022 31.5828 78.959 31.7454 79.528C31.9893 80.3816 34.997 80.4629 38.2079 80.5442C43.3292 80.6661 49.6697 80.8287 50.6452 83.999C50.8891 84.8119 50.8078 85.5028 50.3607 86.1125C48.8975 88.1041 43.695 88.0228 41.2156 88.0228C40.8905 88.0228 40.606 88.0228 40.3621 88.0228C37.3138 88.0634 33.8183 88.4699 33.4932 91.4369C33.3712 92.4937 33.6151 93.3066 34.2248 93.9163C34.997 94.6885 36.3383 95.0543 38.0454 94.8917C42.1911 94.4853 46.1337 92.9002 49.9543 91.3557C51.3362 90.7866 52.7587 90.2176 54.1813 89.6892C57.1077 88.6325 60.5625 87.5757 64.0986 87.6163C65.0335 87.6163 69.7076 87.8602 70.9676 90.3395C71.374 91.1931 71.4147 91.9653 71.0489 92.6563C69.667 95.2575 63.1638 96.0704 61.0503 96.3143H61.0096C59.9529 96.4362 58.8961 96.5582 57.88 96.6801C53.7342 97.1272 49.4665 97.6149 45.4833 98.8749C43.1259 99.6065 40.3621 100.745 39.7931 102.939C39.4679 104.321 39.9963 105.337 40.5653 105.988C41.6221 107.207 43.4918 107.979 45.1175 107.817C46.9059 107.654 48.5723 106.76 49.6291 106.069C57.1484 101.436 64.9522 96.5988 74.1785 100.867L74.0566 101.151C64.9522 96.9646 57.2297 101.72 49.7917 106.354C48.6943 107.045 46.9872 107.979 45.1582 108.142C44.955 108.183 44.7924 108.183 44.6298 108.183Z" fill="#FFDB00"/>
</g>
<path d="M48.9381 63.0265C53.1652 63.0265 56.7826 65.5058 58.449 69.0825L39.6711 68.5542C41.4595 65.3026 44.9143 63.0265 48.9381 63.0265Z" fill="#1520EA"/>
<path d="M57.3517 66.3186L58.6117 56.3607H58.693C60.4814 56.4826 61.3349 55.2632 61.4568 53.4749C61.5788 51.6865 60.1969 50.142 58.3679 50.0201L49.1415 48.7195L39.7932 48.9227L39.8745 65.2618L57.3517 66.3186Z" fill="#FFDB00"/>
<path d="M58.4623 56.3294L57.2003 66.2894L57.4826 66.3251L58.7445 56.3652L58.4623 56.3294Z" fill="white"/>
<path d="M39.9492 48.9262L39.6647 48.9279L39.7621 65.2671L40.0466 65.2654L39.9492 48.9262Z" fill="white"/>
<path d="M59.384 71.5617L59.5466 71.3178C52.2712 66.8876 44.4674 57.2141 41.4597 48.8413L41.1752 48.9226C44.2235 57.3767 52.0273 67.0908 59.384 71.5617Z" fill="white"/>
<path d="M57.7584 66.9283L64.2209 65.8309L62.717 58.4742L56.3358 59.7748L57.7584 66.9283Z" fill="#FFD3BB"/>
<path d="M56.3476 59.9931L62.7632 58.7026L61.6651 53.2435L55.2496 54.5339L56.3476 59.9931Z" fill="#FFDB00"/>
<path d="M58.6363 56.8444C60.4278 56.7196 61.7789 55.1661 61.6541 53.3746C61.5293 51.5831 59.9758 50.232 58.1843 50.3569C56.3928 50.4817 55.0417 52.0352 55.1666 53.8266C55.2914 55.6181 56.8449 56.9692 58.6363 56.8444Z" fill="#FFDB00"/>
<path d="M56.8234 61.5632L56.2137 58.9619" stroke="white" stroke-width="0.599722" stroke-miterlimit="10"/>
<path d="M61.1942 69.5635C62.9857 69.4392 64.3372 67.8861 64.2129 66.0946C64.0886 64.3031 62.5355 62.9516 60.744 63.0759C58.9525 63.2002 57.601 64.7533 57.7253 66.5448C57.8496 68.3362 59.4027 69.6878 61.1942 69.5635Z" fill="#FFD3BB"/>
<path d="M50.5638 58.718L48.4097 63.2296L59.587 69.2857L62.3508 63.3516L50.5638 58.718Z" fill="#FFD3BB"/>
<path d="M49.2632 55.0195C48.7348 55.1008 48.369 55.5479 48.369 56.0356L48.4503 58.3524L52.5148 59.8562L50.2793 55.5885C50.1167 55.1821 49.7103 54.9382 49.2632 55.0195Z" fill="#FFD3BB"/>
<path d="M48.2469 63.2704C46.4992 62.864 45.4018 61.0756 45.8489 59.3279C46.2553 57.5801 48.0437 56.4827 49.7914 56.9298C51.5391 57.3363 52.6365 59.1246 52.1894 60.8724C51.7424 62.6201 49.9946 63.7175 48.2469 63.2704Z" fill="#FFD3BB"/>
<path d="M44.7109 55.792C44.5483 56.1985 44.7922 56.6862 45.2799 56.8488L48.4096 58.1088L50.5231 57.2146L45.8896 55.3856C45.4019 55.1824 44.8735 55.3856 44.7109 55.792Z" fill="#FFD3BB"/>
<path d="M44.1826 60.2225C44.02 60.629 44.2639 61.1167 44.7516 61.2793L47.1903 62.2548L47.8 60.7916L45.3613 59.8161C44.8329 59.6535 44.3452 59.8161 44.1826 60.2225Z" fill="#FFD3BB"/>
<path d="M44.0201 60.1004C44.1421 59.8971 44.3046 59.7345 44.5485 59.6533C44.7924 59.572 45.0769 59.572 45.3208 59.6939L45.1988 59.9784C44.9956 59.8971 44.7924 59.8971 44.6298 59.9378C44.4672 59.9784 44.3046 60.1004 44.264 60.2629C44.1421 60.5881 44.3453 60.9945 44.7517 61.1571L46.5807 61.8887L46.4588 62.1732L44.6298 61.4416C44.1014 61.2384 43.8169 60.6694 43.9795 60.1816C44.0201 60.141 44.0201 60.1004 44.0201 60.1004Z" fill="white"/>
<path d="M43.6542 58.4747C43.4916 58.8812 43.7355 59.3689 44.2232 59.5315L47.3528 60.7915L47.9625 59.3283L44.8329 58.0683C44.3451 57.8651 43.8167 58.0683 43.6542 58.4747Z" fill="#FFD3BB"/>
<path d="M43.5321 58.3526C43.654 58.1493 43.8166 57.9868 44.0605 57.9055C44.3043 57.8242 44.5888 57.8242 44.8327 57.9461L47.9217 59.1655L47.7998 59.45L44.7108 58.2306C44.5076 58.1493 44.3043 58.1494 44.1418 58.19C43.9792 58.2306 43.8166 58.3526 43.776 58.5152C43.654 58.8403 43.8572 59.2468 44.2637 59.4093L47.3527 60.6693L47.2308 60.9538L44.1418 59.6939C43.6134 59.4906 43.3289 58.9216 43.4914 58.4339C43.5321 58.3932 43.5321 58.3526 43.5321 58.3526Z" fill="white"/>
<path d="M44.589 55.6295C44.7109 55.4263 44.8735 55.2637 45.1174 55.1824C45.3612 55.1011 45.6457 55.1011 45.8896 55.2231L50.8076 57.0114L50.6857 57.2959L45.7677 55.4669C45.5644 55.3856 45.3612 55.3856 45.1986 55.4263C45.0361 55.4669 44.8735 55.5889 44.8328 55.7514C44.7109 56.0766 44.9141 56.4831 45.3206 56.6456L48.4096 57.9056L48.2876 58.1901L45.1986 56.9301C44.6703 56.7269 44.3858 56.1579 44.5483 55.6702C44.589 55.6702 44.589 55.6702 44.589 55.6295Z" fill="white"/>
<path d="M43.4918 56.8489C43.3292 57.2554 43.5731 57.7431 44.0608 57.9057L47.8814 59.4502L48.4911 57.987L44.6299 56.4425C44.1828 56.2799 43.6544 56.4425 43.4918 56.8489Z" fill="#FFD3BB"/>
<path d="M43.3696 56.7269C43.5728 56.2798 44.1419 56.1173 44.6702 56.3205L48.4502 57.8243L48.3283 58.1089L44.5483 56.605C44.1419 56.4424 43.7354 56.605 43.6135 56.9301C43.4915 57.2553 43.6948 57.6618 44.1012 57.8243L47.8812 59.3282L47.7592 59.6127L43.9793 58.1089C43.4509 57.9056 43.1664 57.3366 43.329 56.8489C43.3696 56.7676 43.3696 56.7269 43.3696 56.7269Z" fill="white"/>
<path d="M24.5111 54.552H21.2595C20.5279 54.552 19.9182 53.9423 19.9182 53.2107V45.6102C19.9182 44.8785 20.5279 44.2689 21.2595 44.2689H24.5111C25.2427 44.2689 25.8523 44.8785 25.8523 45.6102V53.2107C25.8523 53.9423 25.2427 54.552 24.5111 54.552Z" fill="#FFDB00"/>
<path d="M24.1046 48.273C24.1046 48.7201 23.6544 49.1265 23.1632 49.1265H19.7661V48.0291C19.7661 47.704 20.0117 47.4194 20.3391 47.4194L23.1632 47.4601C23.6953 47.4194 24.1046 47.8259 24.1046 48.273Z" fill="#FFD3BB"/>
<path d="M22.9259 52.7434C22.9259 53.2312 22.5142 53.597 21.979 53.597H20.085C19.8791 53.597 19.7556 53.4344 19.7556 53.2312V51.8899H22.0201C22.5142 51.8899 22.9259 52.2963 22.9259 52.7434Z" fill="#FFD3BB"/>
<path d="M23.0885 52.6218C23.0885 52.3779 22.9666 52.1747 22.7634 52.0121C22.5602 51.8495 22.3163 51.7276 22.0318 51.7276V52.0121C22.235 52.0121 22.4382 52.0934 22.6008 52.2153C22.7227 52.3372 22.804 52.4998 22.804 52.6624C22.804 53.0282 22.4382 53.3127 22.0318 53.3127H20.3247V53.5972H22.0318C22.6008 53.5972 23.0885 53.1908 23.0885 52.6624C23.0885 52.6624 23.0885 52.6624 23.0885 52.6218Z" fill="white"/>
<path d="M24.064 51.2396C24.064 51.6867 23.6575 52.0118 23.1291 52.0118H19.7556V50.4267L23.1291 50.4673C23.6575 50.4673 24.064 50.8331 24.064 51.2396Z" fill="#FFD3BB"/>
<path d="M24.2265 51.1989C24.2265 50.955 24.1046 50.7518 23.9014 50.5892C23.6982 50.4266 23.4543 50.3047 23.1698 50.3047L19.8369 50.2641V50.5486L23.1698 50.5892C23.373 50.5892 23.5762 50.6705 23.7388 50.7924C23.8607 50.9144 23.942 51.0769 23.942 51.2395C23.942 51.6053 23.5762 51.8898 23.1698 51.8898H19.8369V52.1744H23.1698C23.7388 52.1744 24.2265 51.7679 24.2265 51.2395V51.1989Z" fill="white"/>
<path d="M24.2672 48.2725C24.2672 48.0287 24.1453 47.8255 23.942 47.6629C23.7388 47.5003 23.4949 47.3784 23.2104 47.3784H20.3247V47.6629H23.2511C23.4543 47.6629 23.6575 47.7442 23.8201 47.8661C23.942 47.988 24.0233 48.1506 24.0233 48.3132C24.0233 48.679 23.6575 48.9635 23.2511 48.9635H19.9182V49.248H23.2511C23.8201 49.248 24.3078 48.8416 24.3078 48.3132C24.2672 48.3539 24.2672 48.3132 24.2672 48.2725Z" fill="white"/>
<path d="M24.8362 49.8171C24.8362 50.2642 24.4298 50.5893 23.9014 50.5893L19.7556 50.5487V48.9635L23.9014 49.0042C24.4298 49.0448 24.8362 49.37 24.8362 49.8171Z" fill="#FFD3BB"/>
<path d="M24.9988 49.7357C24.9582 49.248 24.5111 48.8822 23.942 48.8415L19.8776 48.8009V49.0854L23.942 49.126C24.3485 49.126 24.7143 49.4105 24.7143 49.7763C24.7143 50.1422 24.3485 50.4267 23.942 50.4267L19.8776 50.386V50.6705L23.942 50.7112C24.5111 50.7112 24.9988 50.3047 24.9988 49.7763C24.9988 49.7763 24.9988 49.7764 24.9988 49.7357Z" fill="white"/>
<path d="M80.7028 46.7427C76.0693 46.7427 72.33 50.482 72.33 55.1155C72.33 58.3264 76.3944 64.5044 78.8331 67.9592C79.7273 69.2192 81.6376 69.2192 82.5318 67.9592C85.0111 64.5044 89.0349 58.3264 89.0349 55.1155C89.0349 50.482 85.2956 46.7427 80.7028 46.7427ZM80.7028 58.2451C78.8331 58.2451 77.3293 56.7413 77.3293 54.8716C77.3293 53.002 78.8331 51.4981 80.7028 51.4981C82.5724 51.4981 84.0763 53.002 84.0763 54.8716C84.0763 56.7413 82.5724 58.2451 80.7028 58.2451Z" fill="#1520EA"/>
<path d="M79.6054 67.5528H80.6622C80.906 67.5528 81.1499 67.756 81.1499 68.0406V68.447C81.1499 68.6909 80.9467 68.9347 80.6622 68.9347H79.6054C79.3615 68.9347 79.1177 68.7315 79.1177 68.447V68.0406C79.1177 67.756 79.3209 67.5528 79.6054 67.5528Z" fill="#1520EA"/>
<path d="M79.3207 46.7427C74.6872 46.7427 70.9479 50.482 70.9479 55.1155C70.9479 58.3264 75.0123 64.5044 77.451 67.9593C78.3452 69.2192 80.2555 69.2192 81.1497 67.9593C83.629 64.5044 87.6529 58.3264 87.6529 55.1155C87.6935 50.482 83.9542 46.7427 79.3207 46.7427ZM79.3207 58.2452C77.451 58.2452 75.9472 56.7413 75.9472 54.8716C75.9472 53.002 77.451 51.4981 79.3207 51.4981C81.1903 51.4981 82.6942 53.002 82.6942 54.8716C82.6942 56.7413 81.1903 58.2452 79.3207 58.2452Z" fill="#FF96A9"/>
<path d="M42.3334 122.522C42.3334 98.7349 64.0814 79.4828 90.8902 79.4828C105.206 79.4828 118.109 85.007 127 93.7467L126.863 122.522H42.3334Z" fill="#ACCAFF"/>
</g>
<defs>
<clipPath id="clip0_7507_2343">
<rect width="127" height="97" fill="white"/>
</clipPath>
</defs>
</svg>
